<?xml version="1.0" encoding="UTF-8"?>
<svg xmlns="http://www.w3.org/2000/svg" xmlns:xlink="http://www.w3.org/1999/xlink" viewBox="0 0 50 50" width="50px" height="50px">
<g id="surface271408">
<path style=" stroke:none;fill-rule:nonzero;fill:rgb(44.705883%,50.196081%,58.823532%);fill-opacity:1;" d="M 19 2 C 16.25 2 14 4.25 14 7 C 14 9.75 16.25 12 19 12 L 23 12 C 23.550781 12 24 11.550781 24 11 L 24 7 C 24 4.25 21.75 2 19 2 Z M 31 2 C 28.25 2 26 4.25 26 7 L 26 19 C 26 21.75 28.25 24 31 24 C 33.75 24 36 21.75 36 19 L 36 7 C 36 4.25 33.75 2 31 2 Z M 19 4 C 20.667969 4 22 5.332031 22 7 L 22 10 L 19 10 C 17.332031 10 16 8.667969 16 7 C 16 5.332031 17.332031 4 19 4 Z M 31 4 C 32.667969 4 34 5.332031 34 7 L 34 19 C 34 20.667969 32.667969 22 31 22 C 29.332031 22 28 20.667969 28 19 L 28 7 C 28 5.332031 29.332031 4 31 4 Z M 7 14 C 4.25 14 2 16.25 2 19 C 2 21.75 4.25 24 7 24 L 19 24 C 21.75 24 24 21.75 24 19 C 24 16.25 21.75 14 19 14 Z M 43 14 C 40.25 14 38 16.25 38 19 L 38 23 C 38 23.550781 38.449219 24 39 24 L 43 24 C 45.75 24 48 21.75 48 19 C 48 16.25 45.75 14 43 14 Z M 7 16 L 19 16 C 20.667969 16 22 17.332031 22 19 C 22 20.667969 20.667969 22 19 22 L 7 22 C 5.332031 22 4 20.667969 4 19 C 4 17.332031 5.332031 16 7 16 Z M 43 16 C 44.667969 16 46 17.332031 46 19 C 46 20.667969 44.667969 22 43 22 L 40 22 L 40 19 C 40 17.332031 41.332031 16 43 16 Z M 7 26 C 4.25 26 2 28.25 2 31 C 2 33.75 4.25 36 7 36 C 9.75 36 12 33.75 12 31 L 12 27 C 12 26.449219 11.550781 26 11 26 Z M 19 26 C 16.25 26 14 28.25 14 31 L 14 43 C 14 45.75 16.25 48 19 48 C 21.75 48 24 45.75 24 43 L 24 31 C 24 28.25 21.75 26 19 26 Z M 31 26 C 28.25 26 26 28.25 26 31 C 26 33.75 28.25 36 31 36 L 43 36 C 45.75 36 48 33.75 48 31 C 48 28.25 45.75 26 43 26 Z M 7 28 L 10 28 L 10 31 C 10 32.667969 8.667969 34 7 34 C 5.332031 34 4 32.667969 4 31 C 4 29.332031 5.332031 28 7 28 Z M 19 28 C 20.667969 28 22 29.332031 22 31 L 22 43 C 22 44.667969 20.667969 46 19 46 C 17.332031 46 16 44.667969 16 43 L 16 31 C 16 29.332031 17.332031 28 19 28 Z M 31 28 L 43 28 C 44.667969 28 46 29.332031 46 31 C 46 32.667969 44.667969 34 43 34 L 31 34 C 29.332031 34 28 32.667969 28 31 C 28 29.332031 29.332031 28 31 28 Z M 27 38 C 26.449219 38 26 38.449219 26 39 L 26 43 C 26 45.75 28.25 48 31 48 C 33.75 48 36 45.75 36 43 C 36 40.25 33.75 38 31 38 Z M 28 40 L 31 40 C 32.667969 40 34 41.332031 34 43 C 34 44.667969 32.667969 46 31 46 C 29.332031 46 28 44.667969 28 43 Z M 28 40 "/>
</g>
</svg>
